<svg xmlns="http://www.w3.org/2000/svg" xmlns:xlink="http://www.w3.org/1999/xlink" viewBox="0 0 60 60"><defs><style>.cls-1{fill:url(#linear-gradient);}.cls-2{fill:url(#linear-gradient-2);}.cls-3{fill:#4eb719;}.cls-4{fill:#4fb819;}.cls-5{fill:#50b919;}.cls-6{fill:#50ba19;}.cls-7{fill:#51bb1a;}.cls-8{fill:#52bc1a;}.cls-9{fill:#53bd1a;}.cls-10{fill:#53be1a;}.cls-11{fill:#54bf1a;}.cls-12{fill:#55c01a;}.cls-13{fill:#56c11a;}.cls-14{fill:#56c21a;}.cls-15{fill:#57c31b;}.cls-16{fill:#58c41b;}.cls-17{fill:#59c51b;}.cls-18{fill:#59c61b;}.cls-19{fill:#5ac71b;}.cls-20{fill:#5bc81b;}.cls-21{fill:#5cc91b;}.cls-22{fill:#5cca1b;}.cls-23{fill:#5dcb1c;}.cls-24{fill:#5ecc1c;}.cls-25{fill:#5fcd1c;}.cls-26{fill:#5fce1c;}.cls-27{fill:#60cf1c;}.cls-28{fill:#61d01c;}.cls-29{fill:#62d11c;}.cls-30{fill:#62d21c;}.cls-31{fill:#63d31d;}.cls-32{fill:#64d41d;}.cls-33{fill:#65d51d;}.cls-34{fill:#66d61d;}.cls-35{fill:#67d71d;}.cls-36{fill:#68d81d;}.cls-37{fill:#69d91e;}.cls-38{fill:#69da1e;}.cls-39{fill:#6adb1e;}.cls-40{fill:#6bdc1e;}.cls-41{fill:#6cdd1e;}.cls-42{fill:#6cde1e;}.cls-43{fill:#6ddf1e;}.cls-44{fill:#6ee01e;}.cls-45{fill:#6fe11f;}.cls-46{fill:#6fe21f;}.cls-47{fill:#70e31f;}.cls-48{fill:#71e41f;}.cls-49{fill:#72e51f;}.cls-50{fill:#72e61f;}.cls-51{fill:#73e71f;}.cls-52{fill:#74e81f;}.cls-53{fill:#75e920;}.cls-54{fill:#75ea20;}.cls-55{fill:#76eb20;}.cls-56{fill:#77ec20;}.cls-57{fill:#78ed20;}.cls-58{fill:#78ee20;}.cls-59{fill:#79ef20;}.cls-60{fill:#7af020;}.cls-61{fill:#7bf121;}.cls-62{fill:#7bf221;}.cls-63{fill:#7cf321;}.cls-64{fill:#7df421;}</style><linearGradient id="linear-gradient" x1="-96.2" y1="30" x2="68.71" y2="30" gradientUnits="userSpaceOnUse"><stop offset="0.14" stop-color="#fff"/><stop offset="1"/></linearGradient><linearGradient id="linear-gradient-2" x1="-87.79" y1="30" x2="66.13" y2="30" gradientUnits="userSpaceOnUse"><stop offset="0.14" stop-color="#a7db8c"/><stop offset="1" stop-color="#396b1d"/></linearGradient></defs><title>BPMCounterON</title><g id="Layer_2" data-name="Layer 2"><g id="Layer_1-2" data-name="Layer 1"><g id="bpmON"><circle class="cls-1" cx="30" cy="30" r="30"/><circle class="cls-2" cx="30" cy="30" r="28"/><circle class="cls-3" cx="30" cy="30" r="26"/><circle class="cls-4" cx="30" cy="30.08" r="25.74"/><circle class="cls-5" cx="30" cy="30.17" r="25.49"/><circle class="cls-6" cx="30" cy="30.25" r="25.23"/><circle class="cls-7" cx="30" cy="30.33" r="24.97"/><circle class="cls-8" cx="30" cy="30.41" r="24.72"/><circle class="cls-9" cx="30" cy="30.5" r="24.46"/><circle class="cls-10" cx="30" cy="30.58" r="24.2"/><circle class="cls-11" cx="30" cy="30.66" r="23.95"/><circle class="cls-12" cx="30" cy="30.75" r="23.69"/><circle class="cls-13" cx="30" cy="30.83" r="23.43"/><circle class="cls-14" cx="30" cy="30.91" r="23.18"/><circle class="cls-15" cx="30" cy="30.99" r="22.92"/><circle class="cls-16" cx="30" cy="31.08" r="22.67"/><circle class="cls-17" cx="30" cy="31.16" r="22.41"/><circle class="cls-18" cx="30" cy="31.24" r="22.15"/><circle class="cls-19" cx="30" cy="31.33" r="21.9"/><circle class="cls-20" cx="30" cy="31.41" r="21.64"/><circle class="cls-21" cx="30" cy="31.49" r="21.38"/><circle class="cls-22" cx="30" cy="31.57" r="21.13"/><circle class="cls-23" cx="30" cy="31.66" r="20.87"/><circle class="cls-24" cx="30" cy="31.74" r="20.61"/><circle class="cls-25" cx="30" cy="31.82" r="20.36"/><circle class="cls-26" cx="30" cy="31.91" r="20.1"/><circle class="cls-27" cx="30" cy="31.99" r="19.84"/><circle class="cls-28" cx="30" cy="32.07" r="19.59"/><circle class="cls-29" cx="30" cy="32.15" r="19.33"/><circle class="cls-30" cx="30" cy="32.24" r="19.07"/><circle class="cls-31" cx="30" cy="32.32" r="18.82"/><circle class="cls-32" cx="30" cy="32.4" r="18.56"/><circle class="cls-33" cx="30" cy="32.49" r="18.3"/><circle class="cls-34" cx="30" cy="32.57" r="18.05"/><circle class="cls-34" cx="30" cy="32.65" r="17.79"/><circle class="cls-35" cx="30" cy="32.73" r="17.53"/><circle class="cls-36" cx="30" cy="32.82" r="17.28"/><circle class="cls-37" cx="30" cy="32.9" r="17.02"/><circle class="cls-38" cx="30" cy="32.98" r="16.76"/><circle class="cls-39" cx="30" cy="33.07" r="16.51"/><circle class="cls-40" cx="30" cy="33.15" r="16.25"/><circle class="cls-41" cx="30" cy="33.23" r="16"/><circle class="cls-42" cx="30" cy="33.31" r="15.74"/><circle class="cls-43" cx="30" cy="33.4" r="15.48"/><circle class="cls-44" cx="30" cy="33.48" r="15.23"/><circle class="cls-45" cx="30" cy="33.56" r="14.97"/><circle class="cls-46" cx="30" cy="33.65" r="14.71"/><circle class="cls-47" cx="30" cy="33.73" r="14.46"/><circle class="cls-48" cx="30" cy="33.81" r="14.2"/><circle class="cls-49" cx="30" cy="33.89" r="13.94"/><circle class="cls-50" cx="30" cy="33.98" r="13.69"/><circle class="cls-51" cx="30" cy="34.06" r="13.43"/><circle class="cls-52" cx="30" cy="34.14" r="13.17"/><circle class="cls-53" cx="30" cy="34.23" r="12.92"/><circle class="cls-54" cx="30" cy="34.31" r="12.66"/><circle class="cls-55" cx="30" cy="34.39" r="12.4"/><circle class="cls-56" cx="30" cy="34.47" r="12.15"/><circle class="cls-57" cx="30" cy="34.56" r="11.89"/><circle class="cls-58" cx="30" cy="34.64" r="11.63"/><circle class="cls-59" cx="30" cy="34.72" r="11.38"/><circle class="cls-60" cx="30" cy="34.81" r="11.12"/><circle class="cls-61" cx="30" cy="34.89" r="10.86"/><circle class="cls-62" cx="30" cy="34.97" r="10.61"/><circle class="cls-63" cx="30" cy="35.05" r="10.35"/><circle class="cls-64" cx="30" cy="35.14" r="10.1"/></g></g></g></svg>