<svg xmlns="http://www.w3.org/2000/svg" xmlns:xlink="http://www.w3.org/1999/xlink" viewBox="0 0 60 60"><defs><style>.cls-1{fill:url(#linear-gradient);}.cls-2{fill:url(#linear-gradient-2);}.cls-3{fill:#5e6756;}.cls-4{fill:#5f6857;}.cls-5{fill:#606958;}.cls-6{fill:#616a59;}.cls-7{fill:#626a5a;}.cls-8{fill:#636b5b;}.cls-9{fill:#646c5c;}.cls-10{fill:#646d5d;}.cls-11{fill:#656e5e;}.cls-12{fill:#666f5f;}.cls-13{fill:#677060;}.cls-14{fill:#687061;}.cls-15{fill:#697162;}.cls-16{fill:#6a7263;}.cls-17{fill:#6b7364;}.cls-18{fill:#6c7465;}.cls-19{fill:#6d7566;}.cls-20{fill:#6e7667;}.cls-21{fill:#6f7768;}.cls-22{fill:#707869;}.cls-23{fill:#71796a;}.cls-24{fill:#727a6b;}.cls-25{fill:#737b6c;}.cls-26{fill:#747c6d;}.cls-27{fill:#757d6e;}.cls-28{fill:#767d6f;}.cls-29{fill:#777e70;}.cls-30{fill:#787f71;}.cls-31{fill:#798072;}.cls-32{fill:#798173;}.cls-33{fill:#7a8274;}.cls-34{fill:#7b8375;}.cls-35{fill:#7c8376;}.cls-36{fill:#7d8477;}.cls-37{fill:#7e8578;}.cls-38{fill:#7f8679;}</style><linearGradient id="linear-gradient" x1="-96.2" y1="30" x2="68.71" y2="30" gradientUnits="userSpaceOnUse"><stop offset="0.14" stop-color="#fff"/><stop offset="1"/></linearGradient><linearGradient id="linear-gradient-2" x1="-87.79" y1="30" x2="66.13" y2="30" gradientUnits="userSpaceOnUse"><stop offset="0.14" stop-color="#afb3ab"/><stop offset="1" stop-color="#41433b"/></linearGradient></defs><title>BPMCounterOFF</title><g id="Layer_2" data-name="Layer 2"><g id="Layer_1-2" data-name="Layer 1"><g id="bpmON"><circle class="cls-1" cx="30" cy="30" r="30"/><circle class="cls-2" cx="30" cy="30" r="28"/><circle class="cls-3" cx="30" cy="30" r="26"/><circle class="cls-4" cx="30" cy="30.14" r="25.56"/><circle class="cls-5" cx="30" cy="30.29" r="25.12"/><circle class="cls-6" cx="30" cy="30.43" r="24.67"/><circle class="cls-7" cx="30" cy="30.57" r="24.23"/><circle class="cls-8" cx="30" cy="30.71" r="23.79"/><circle class="cls-9" cx="30" cy="30.86" r="23.35"/><circle class="cls-10" cx="30" cy="31" r="22.91"/><circle class="cls-11" cx="30" cy="31.14" r="22.47"/><circle class="cls-12" cx="30" cy="31.28" r="22.02"/><circle class="cls-13" cx="30" cy="31.43" r="21.58"/><circle class="cls-14" cx="30" cy="31.57" r="21.14"/><circle class="cls-15" cx="30" cy="31.71" r="20.7"/><circle class="cls-16" cx="30" cy="31.86" r="20.26"/><circle class="cls-17" cx="30" cy="32" r="19.81"/><circle class="cls-18" cx="30" cy="32.14" r="19.37"/><circle class="cls-19" cx="30" cy="32.28" r="18.93"/><circle class="cls-20" cx="30" cy="32.43" r="18.49"/><circle class="cls-21" cx="30" cy="32.57" r="18.05"/><circle class="cls-21" cx="30" cy="32.71" r="17.61"/><circle class="cls-22" cx="30" cy="32.85" r="17.16"/><circle class="cls-23" cx="30" cy="33" r="16.72"/><circle class="cls-24" cx="30" cy="33.14" r="16.28"/><circle class="cls-25" cx="30" cy="33.28" r="15.84"/><circle class="cls-26" cx="30" cy="33.42" r="15.4"/><circle class="cls-27" cx="30" cy="33.57" r="14.95"/><circle class="cls-28" cx="30" cy="33.71" r="14.51"/><circle class="cls-29" cx="30" cy="33.85" r="14.07"/><circle class="cls-30" cx="30" cy="34" r="13.63"/><circle class="cls-31" cx="30" cy="34.14" r="13.19"/><circle class="cls-32" cx="30" cy="34.28" r="12.75"/><circle class="cls-33" cx="30" cy="34.42" r="12.3"/><circle class="cls-34" cx="30" cy="34.57" r="11.86"/><circle class="cls-35" cx="30" cy="34.71" r="11.42"/><circle class="cls-36" cx="30" cy="34.85" r="10.98"/><circle class="cls-37" cx="30" cy="34.99" r="10.54"/><circle class="cls-38" cx="30" cy="35.14" r="10.1"/></g></g></g></svg>