<svg xmlns="http://www.w3.org/2000/svg" xmlns:xlink="http://www.w3.org/1999/xlink" viewBox="0 0 78.68 86.44"><defs><style>.cls-1{fill:url(#linear-gradient);}.cls-2{fill:url(#linear-gradient-2);}</style><linearGradient id="linear-gradient" x1="-90.1" y1="44.73" x2="528.31" y2="35.8" gradientUnits="userSpaceOnUse"><stop offset="0.05" stop-color="lime"/><stop offset="0.1" stop-color="#05e104"/><stop offset="0.16" stop-color="#0abd09"/><stop offset="0.23" stop-color="#0fa00e"/><stop offset="0.3" stop-color="#128911"/><stop offset="0.38" stop-color="#157913"/><stop offset="0.46" stop-color="#176f15"/><stop offset="0.57" stop-color="#176c15"/></linearGradient><linearGradient id="linear-gradient-2" x1="340.6" y1="42.93" x2="-623.26" y2="43.78" gradientUnits="userSpaceOnUse"><stop offset="0.05" stop-color="lime"/><stop offset="0.13" stop-color="#05e104"/><stop offset="0.25" stop-color="#0abd09"/><stop offset="0.37" stop-color="#0fa00e"/><stop offset="0.5" stop-color="#128911"/><stop offset="0.64" stop-color="#157913"/><stop offset="0.8" stop-color="#176f15"/><stop offset="1" stop-color="#176c15"/></linearGradient></defs><title>PlayButton</title><g id="Layer_2" data-name="Layer 2"><g id="Layer_1-2" data-name="Layer 1"><g id="PlayButton"><path class="cls-1" d="M14.34,86.44A14.35,14.35,0,0,1,0,72.11V14.34A14.31,14.31,0,0,1,21.49,1.93l50,28.89a14.32,14.32,0,0,1,0,24.81l-50,28.88a14.39,14.39,0,0,1-7.15,1.93Z"/><path class="cls-2" d="M70,36.84,17.05,6.3A7.37,7.37,0,0,0,6,12.68V73.76a7.37,7.37,0,0,0,11.05,6.38L70,49.6A7.37,7.37,0,0,0,70,36.84Z"/></g></g></g></svg>